<svg height="512" viewBox="0 0 64 64" width="512" xmlns="http://www.w3.org/2000/svg"><g fill-rule="evenodd"><path d="m48 64h-32a16.0007 16.0007 0 0 1 -16-16v-32a16.0007 16.0007 0 0 1 16-16h32a16 16 0 0 1 16 16v32a16 16 0 0 1 -16 16" fill="#9146ff"/><path d="m30 18h18a9.0006 9.0006 0 0 0 .92-17.954c-.306-.017-.609-.046-.92-.046h-32a16.0007 16.0007 0 0 0 -16 16v32a30.0007 30.0007 0 0 1 30-30" fill="#b469ff"/><path d="m48 32a16 16 0 1 0 16 16v-32a16 16 0 0 1 -16 16" fill="#7328e1"/><path d="m43.343 39 5.657-5.6569v-18.3431h-26v24h8v6l6-6zm-3.171 8.8284a4.0024 4.0024 0 0 1 -2.829 1.1716h-6.343s-3.943 3.9433-6.293 6.2929a1 1 0 0 1 -1.707-.7071v-5.5858h-8a2 2 0 0 1 -2-2v-26.3431a3.997 3.997 0 0 1 1.172-2.8285c1.515-1.5157 4.141-4.1411 5.656-5.6568a4.0024 4.0024 0 0 1 2.829-1.1716h28.343a2 2 0 0 1 2 2v21.1716a2.0006 2.0006 0 0 1 -.586 1.4142c-2.115 2.1147-9.381 9.3809-12.242 12.2426z" fill="#fff"/></g><path d="m32 20h4v10h-4z" fill="#fff"/><path d="m41 20h4v10h-4z" fill="#fff"/></svg>